<?xml version="1.0" standalone="no"?>
<!DOCTYPE svg PUBLIC "-//W3C//DTD SVG 20010904//EN"
 "http://www.w3.org/TR/2001/REC-SVG-20010904/DTD/svg10.dtd">
<svg version="1.0" xmlns="http://www.w3.org/2000/svg"
 width="10001.000000pt" height="3543.000000pt" viewBox="0 0 10001.000000 3543.000000"
 preserveAspectRatio="xMidYMid meet">

<g transform="translate(0.000000,3543.000000) scale(0.100000,-0.100000)"
fill="#000000" stroke="none">
<path d="M76345 25300 c-820 -45 -1600 -199 -2303 -454 -741 -269 -1428 -653
-1987 -1111 -55 -45 -158 -128 -229 -184 -271 -217 -616 -550 -833 -806 -1002
-1179 -1584 -2704 -1684 -4410 -15 -258 -6 -898 15 -1135 98 -1063 351 -1980
787 -2852 445 -889 1042 -1631 1778 -2208 73 -58 190 -152 260 -209 809 -669
1793 -1116 2970 -1351 909 -181 1861 -215 2801 -100 1052 129 2079 455 2797
888 1055 637 1908 1452 2530 2417 81 125 100 162 91 171 -7 6 -508 296 -1113
644 -800 460 -1103 630 -1114 623 -8 -5 -44 -59 -81 -121 -755 -1254 -1941
-2067 -3345 -2292 -443 -71 -963 -78 -1420 -20 -876 112 -1714 447 -2410 965
-358 265 -720 626 -975 969 -300 404 -522 831 -680 1306 -129 387 -199 729
-242 1180 -20 214 -16 1178 5 1390 105 1018 447 1853 1065 2600 116 140 440
465 577 579 838 697 1862 1104 2970 1182 189 13 656 7 820 -11 488 -53 895
-151 1315 -317 877 -346 1635 -965 2177 -1778 59 -89 197 -315 228 -372 2 -4
2217 1275 2227 1285 10 10 -122 233 -250 424 -818 1221 -2084 2155 -3624 2673
-690 233 -1382 370 -2138 425 -200 15 -791 20 -985 10z"/>
<path d="M987 25087 c11 -18 469 -764 1018 -1657 l998 -1625 2215 -3395 c1219
-1867 2252 -3450 2296 -3518 69 -104 84 -122 105 -120 19 2 43 34 116 148 51
80 1077 1650 2279 3490 l2187 3345 85 3 84 3 0 -5601 0 -5600 1360 0 1360 0 0
7280 0 7280 -1833 0 -1834 0 -1895 -2902 c-1043 -1597 -1902 -2904 -1909
-2905 -9 -2 -747 1120 -1909 2902 l-1895 2904 -1423 1 -1424 0 19 -33z"/>
<path d="M18940 17840 l0 -7280 1666 2 1666 3 3506 5377 3507 5377 83 1 82 0
0 -5380 0 -5380 1365 0 1365 0 0 7280 0 7280 -1663 0 -1663 0 -3514 -5380
-3513 -5380 -84 0 -83 0 0 5380 0 5380 -1360 0 -1360 0 0 -7280z"/>
<path d="M37730 24248 c0 -998 -14 -1706 -50 -2588 -184 -4418 -746 -7230
-1627 -8127 -140 -142 -302 -245 -463 -295 -74 -22 -82 -22 -707 -26 l-633 -3
0 -2359 0 -2360 1365 0 1365 0 0 1230 0 1230 5660 0 5660 0 0 -1230 0 -1230
1365 0 1365 0 0 2360 0 2360 -1175 0 -1175 0 0 5955 0 5955 -5475 0 -5475 0 0
-872z m8220 -6208 l0 -4830 -3696 0 -3697 0 47 41 c106 94 238 289 362 539
711 1428 1201 4515 1339 8440 9 250 18 497 21 548 l6 92 2809 0 2809 0 0
-4830z"/>
<path d="M53470 17840 l0 -7280 1662 2 1662 3 3506 5375 3507 5375 86 3 87 3
0 -5381 0 -5380 1365 0 1365 0 0 7280 0 7280 -1663 0 -1663 0 -3514 -5380
-3513 -5380 -84 0 -83 0 0 5380 0 5380 -1360 0 -1360 0 0 -7280z"/>
<path d="M1338 15847 l-1308 -1992 0 -1647 0 -1648 1365 0 1365 0 0 3640 0
3640 -57 0 -58 0 -1307 -1993z"/>
</g>
</svg>
